# xmcd CD database file
# Copyright (C) 1993-1998 Ti Kan
#
# Track frame offsets:
#	150
#	18245
#	35880
#	63450
#	80542
#	99935
#	118282
#	136867
#	156202
#	177487
#	195980
#	215667
#	240050
#	258937
#
# Disc length: 3752 seconds
#
# Revision: 1
# Processed by: cddbd v1.4b41PL1 Copyright (c) Steve Scherf et al.
# Submitted via: CDValet v3.31 - Copyright (c) 1997 Greg Leichner
#
DISCID=b90ea60e
DTITLE=Various Artist - The Glory Of Love
DYEAR=1900
DGENRE=
TTITLE0=If You Asked Me To
TTITLE1=Suddenly
TTITLE2=Love Come Down
TTITLE3=Solid
TTITLE4=Don't Say No Tonight
TTITLE5=Sharing The Love
TTITLE6=Shake You Down
TTITLE7=Everything
TTITLE8=I'd Still Say Yes
TTITLE9=Love You Down
TTITLE10=I Pledge My Love
TTITLE11=Lady You Are
TTITLE12=You Got It All
TTITLE13=I Feel Good All Over
EXTD=
EXTT0=
EXTT1=
EXTT2=
EXTT3=
EXTT4=
EXTT5=
EXTT6=
EXTT7=
EXTT8=
EXTT9=
EXTT10=
EXTT11=
EXTT12=
EXTT13=
PLAYORDER=
